<svg xmlns="http://www.w3.org/2000/svg" width="26" height="26" fill="none"><g fill="#191717" clip-path="url(#a)"><path fill-rule="evenodd" d="M13 .542a13.046 13.046 0 0 0-8.42 3.083A12.91 12.91 0 0 0 .172 11.4a12.867 12.867 0 0 0 1.708 8.76 12.99 12.99 0 0 0 7.008 5.573c.645.12.889-.28.889-.62 0-.34-.013-1.327-.018-2.406-3.616.781-4.38-1.526-4.38-1.526-.59-1.499-1.442-1.892-1.442-1.892-1.18-.801.088-.786.088-.786 1.306.092 1.993 1.334 1.993 1.334 1.158 1.975 3.042 1.404 3.782 1.07.117-.837.455-1.406.827-1.73-2.889-.325-5.924-1.434-5.924-6.387a4.99 4.99 0 0 1 1.339-3.47c-.134-.325-.58-1.639.127-3.424 0 0 1.091-.347 3.575 1.325 2.131-.58 4.38-.58 6.51 0 2.482-1.672 3.571-1.325 3.571-1.325.709 1.78.263 3.095.13 3.425a4.98 4.98 0 0 1 1.34 3.473c0 4.964-3.041 6.058-5.934 6.377.465.402.88 1.188.88 2.395 0 1.73-.015 3.12-.015 3.547 0 .344.235.747.893.62a12.989 12.989 0 0 0 7.01-5.574 12.867 12.867 0 0 0 1.706-8.761 12.91 12.91 0 0 0-4.408-7.774A13.047 13.047 0 0 0 13.005.542H13Z" clip-rule="evenodd"/><path d="M8.697 21.64c0 .105-.12.195-.275.197-.155.002-.282-.084-.282-.189 0-.104.12-.194.275-.197.155-.002.282.082.282.189ZM9.687 21.475c.02.105-.088.214-.243.24-.155.026-.29-.037-.31-.14-.02-.102.093-.213.243-.241.151-.028.29.036.31.141ZM7.633 21.567c-.032.1-.179.146-.325.103-.146-.043-.243-.163-.215-.266.028-.102.176-.15.325-.102.148.047.243.16.215.265ZM6.659 21.148c-.071.079-.216.057-.334-.05-.118-.107-.146-.252-.075-.33.07-.076.215-.055.338.05.122.105.146.252.07.33ZM5.963 20.428c-.08.056-.215 0-.29-.11a.214.214 0 0 1 0-.31c.079-.053.215 0 .29.11.075.11.077.255 0 .31ZM5.45 19.686a.217.217 0 0 1-.267-.06c-.084-.09-.1-.214-.036-.27.064-.056.18-.03.264.06.084.09.104.214.04.27ZM4.923 19.101c-.028.065-.131.084-.215.039-.084-.045-.146-.129-.116-.195.03-.066.131-.083.215-.038.084.044.148.13.116.194Z"/></g><defs><clipPath id="a"><path fill="#fff" d="M0 0h26v26H0z"/></clipPath></defs></svg>