<svg xmlns="http://www.w3.org/2000/svg" width="1204" height="288" fill="none"><path fill="#FFCE43" stroke="#000" d="M390 93.527 412.048 43l25.332 51.944L390 93.526Z"/><path fill="#000" d="m279.53 130-10.01-25.74H228.7L218.95 130H205.3l36.66-92.17h14.69L293.31 130h-13.78Zm-30.55-78.91-15.73 41.34h31.72l-15.99-41.34ZM362.635 130h-56.29V37.83h12.74v80.21h43.55V130Zm81.299 0-10.01-25.74h-40.82l-9.75 25.74h-13.65l36.66-92.17h14.69l36.66 92.17h-13.78Zm-30.55-78.91-15.73 41.34h31.72l-15.99-41.34ZM546.539 130h-13.26l-49.79-75.14V130h-12.74V37.83h17.03l46.02 70.72V37.83h12.74V130ZM437.49 282h-13.26l-49.79-75.14V282H361.7v-92.17h17.03l46.02 70.72v-70.72h12.74V282Zm103.18 0H530.4l-1.17-13c-2.253 4.073-5.936 7.583-11.05 10.53-5.113 2.947-11.266 4.42-18.46 4.42-7.886 0-15.166-1.777-21.84-5.33-6.673-3.64-12.176-9.187-16.51-16.64-4.246-7.453-6.37-16.163-6.37-26.13 0-9.967 2.254-18.677 6.76-26.13 4.507-7.453 10.14-12.957 16.9-16.51 6.847-3.553 14.17-5.33 21.97-5.33 9.88 0 18.46 2.557 25.74 7.67 7.367 5.027 12.394 11.743 15.08 20.15l-11.57 4.94c-2.08-6.673-5.72-11.83-10.92-15.47-5.113-3.727-11.223-5.59-18.33-5.59-8.926 0-16.596 3.163-23.01 9.49-6.413 6.327-9.62 15.253-9.62 26.78 0 11.613 3.12 20.627 9.36 27.04 6.327 6.327 13.91 9.49 22.75 9.49 4.854 0 9.144-.78 12.87-2.34 3.814-1.56 6.76-3.597 8.84-6.11 2.167-2.6 3.77-5.2 4.81-7.8 1.127-2.6 1.777-5.2 1.95-7.8H496.6v-11.44h44.07V282Zm75.225-6.89c-6.154 5.893-14.084 8.84-23.79 8.84-9.707 0-17.68-2.947-23.92-8.84-6.154-5.893-9.23-14.083-9.23-24.57v-60.71h12.61v60.32c0 7.02 1.776 12.437 5.33 16.25 3.64 3.813 8.71 5.72 15.21 5.72s11.526-1.907 15.08-5.72c3.553-3.813 5.33-9.23 5.33-16.25v-60.32h12.74v60.71c0 10.487-3.12 18.677-9.36 24.57Zm53.55-32.5-32.5-52.78h15.34l23.92 41.08 23.92-41.08h14.56l-32.5 52.78V282h-12.74v-39.39ZM783.736 282h-56.03v-92.17h56.03v11.83h-43.29V230h39.26v11.96h-39.26v28.21h43.29V282Zm95.297 0h-13.26l-49.79-75.14V282h-12.74v-92.17h17.03l46.02 70.72v-70.72h12.74V282Z"/><path stroke="#000" stroke-dasharray="15 15" stroke-width="2" d="M8.2 217.073c114.254 31.591 258.431 3.159 342.761-56.467"/><path fill="#000" d="M2.16 44.984h5.544c1.584 0 2.832.424 3.744 1.272.928.848 1.392 1.96 1.392 3.336 0 .88-.232 1.64-.696 2.28a3.931 3.931 0 0 1-1.848 1.392c.944.24 1.688.744 2.232 1.512.56.752.84 1.616.84 2.592 0 1.344-.488 2.456-1.464 3.336-.976.864-2.24 1.296-3.792 1.296H2.16V44.984Zm2.352 7.44H7.44c.928 0 1.664-.248 2.208-.744.544-.512.816-1.168.816-1.968 0-.816-.28-1.464-.84-1.944-.56-.48-1.32-.72-2.28-.72H4.512v5.376Zm0 7.512h3.264c.96 0 1.728-.248 2.304-.744.592-.496.888-1.152.888-1.968 0-.848-.264-1.52-.792-2.016-.528-.512-1.296-.768-2.304-.768h-3.36v5.496ZM27.912 62l-1.847-4.752h-7.536L16.729 62h-2.52l6.768-17.016h2.712L30.457 62h-2.544Zm-5.64-14.568-2.903 7.632h5.856l-2.952-7.632Zm21.205 1.416-2.112.744c-.112-.736-.472-1.4-1.08-1.992-.608-.608-1.448-.912-2.52-.912-.944 0-1.728.272-2.352.816-.624.544-.936 1.216-.936 2.016 0 .624.184 1.152.552 1.584.384.432.928.728 1.632.888l2.544.552c1.408.304 2.496.88 3.264 1.728.768.832 1.152 1.848 1.152 3.048 0 1.376-.544 2.56-1.632 3.552-1.088.992-2.504 1.488-4.248 1.488-1.904 0-3.4-.496-4.488-1.488-1.072-1.008-1.696-2.2-1.872-3.576l2.256-.72c.096 1.024.496 1.888 1.2 2.592.704.704 1.664 1.056 2.88 1.056 1.12 0 1.984-.256 2.592-.768.608-.512.912-1.16.912-1.944 0-.64-.216-1.192-.648-1.656-.432-.48-1.064-.808-1.896-.984l-2.424-.528c-1.264-.272-2.272-.808-3.024-1.608-.752-.8-1.128-1.816-1.128-3.048 0-1.344.544-2.52 1.632-3.528 1.104-1.024 2.432-1.536 3.984-1.536 1.744 0 3.08.424 4.008 1.272.928.848 1.512 1.832 1.752 2.952ZM57.199 62H46.855V44.984H57.2v2.184h-7.992V52.4h7.248v2.208h-7.248v5.208H57.2V62Zm5.954-2.088h3.48c1.664 0 3.04-.552 4.128-1.656 1.104-1.104 1.656-2.68 1.656-4.728 0-2.064-.544-3.656-1.632-4.776-1.072-1.12-2.44-1.68-4.104-1.68h-3.528v12.84ZM66.705 62H60.8V44.984h5.952c2.288 0 4.208.76 5.76 2.28 1.552 1.504 2.328 3.592 2.328 6.264 0 2.656-.784 4.736-2.352 6.24C70.92 61.256 68.993 62 66.705 62Zm19.77 0h-2.4V44.984h2.4V62Zm18.318 0h-2.448l-9.192-13.872V62H90.8V44.984h3.144l8.496 13.056V44.984h2.352V62Zm20.704 0h-10.392V44.984h2.352v14.808h8.04V62Zm15.01 0-1.848-4.752h-7.536l-1.8 4.752h-2.52l6.768-17.016h2.712L143.051 62h-2.544Zm-5.64-14.568-2.904 7.632h5.856l-2.952-7.632ZM161.872 62l-2.16-2.256c-1.52 1.696-3.112 2.544-4.776 2.544-1.52 0-2.72-.432-3.6-1.296-.88-.864-1.32-1.88-1.32-3.048 0-1.024.24-1.88.72-2.568.496-.688 1.256-1.416 2.28-2.184l.24-.192-.312-.336a30.86 30.86 0 0 1-.936-1.008c-.208-.272-.448-.672-.72-1.2-.256-.544-.384-1.072-.384-1.584 0-1.296.44-2.328 1.32-3.096.896-.768 1.92-1.152 3.072-1.152 1.312 0 2.392.384 3.24 1.152.848.752 1.272 1.752 1.272 3 0 1.328-.8 2.584-2.4 3.768l-.864.648 3.168 3.288 3.792-4.224v3.096l-2.304 2.664L165.064 62h-3.192Zm-6.912-1.872c.592 0 1.128-.16 1.608-.48.496-.32 1.016-.784 1.56-1.392l.072-.096-3.456-3.624-.864.648c-.96.736-1.44 1.592-1.44 2.568 0 .608.232 1.16.696 1.656.48.48 1.088.72 1.824.72Zm-1.728-11.4c0 .688.432 1.48 1.296 2.376l.528.576 1.152-.864c.848-.624 1.272-1.328 1.272-2.112 0-.576-.208-1.064-.624-1.464-.4-.4-.912-.6-1.536-.6-.544 0-1.032.192-1.464.576-.416.368-.624.872-.624 1.512ZM2.16 84.984h5.544c1.584 0 2.832.424 3.744 1.272.928.848 1.392 1.96 1.392 3.336 0 .88-.232 1.64-.696 2.28a3.931 3.931 0 0 1-1.848 1.392c.944.24 1.688.744 2.232 1.512.56.752.84 1.616.84 2.592 0 1.344-.488 2.456-1.464 3.336-.976.864-2.24 1.296-3.792 1.296H2.16V84.984Zm2.352 7.44H7.44c.928 0 1.664-.248 2.208-.744.544-.512.816-1.168.816-1.968 0-.816-.28-1.464-.84-1.944-.56-.48-1.32-.72-2.28-.72H4.512v5.376Zm0 7.512h3.264c.96 0 1.728-.248 2.304-.744.592-.496.888-1.152.888-1.968 0-.848-.264-1.52-.792-2.016-.528-.512-1.296-.768-2.304-.768h-3.36v5.496Zm23.4 2.064-1.847-4.752h-7.536l-1.8 4.752h-2.52l6.768-17.016h2.712L30.457 102h-2.544Zm-5.64-14.568-2.903 7.632h5.856l-2.952-7.632Zm13.1 7.296-6-9.744h2.833l4.416 7.584 4.416-7.584h2.688l-6 9.744V102h-2.352v-7.272ZM63.913 102l-1.847-4.752h-7.536l-1.8 4.752h-2.52l6.768-17.016h2.712L66.457 102h-2.544Zm-5.64-14.568-2.903 7.632h5.856l-2.952-7.632ZM77.673 102l-3.889-6.96H71.24V102h-2.376V84.984h6.408c1.568 0 2.824.488 3.768 1.464.96.96 1.44 2.16 1.44 3.6 0 1.232-.368 2.288-1.104 3.168-.736.864-1.744 1.416-3.024 1.656L80.407 102h-2.736Zm-6.433-9.072h3.6c.96 0 1.736-.256 2.328-.768.592-.528.888-1.232.888-2.112 0-.896-.296-1.608-.888-2.136-.592-.544-1.368-.816-2.328-.816h-3.6v5.832ZM94.067 102H83.723V84.984h10.344v2.184h-7.992V92.4h7.248v2.208h-7.248v5.208h7.992V102Zm15.385 0-1.848-4.752h-7.536l-1.8 4.752h-2.52l6.768-17.016h2.712L111.996 102h-2.544Zm-5.64-14.568-2.904 7.632h5.856l-2.952-7.632ZM940.875 193.848l-2.112.744c-.112-.736-.472-1.4-1.08-1.992-.608-.608-1.448-.912-2.52-.912-.944 0-1.728.272-2.352.816-.624.544-.936 1.216-.936 2.016 0 .624.184 1.152.552 1.584.384.432.928.728 1.632.888l2.544.552c1.408.304 2.496.88 3.264 1.728.768.832 1.152 1.848 1.152 3.048 0 1.376-.544 2.56-1.632 3.552-1.088.992-2.504 1.488-4.248 1.488-1.904 0-3.4-.496-4.488-1.488-1.072-1.008-1.696-2.2-1.872-3.576l2.256-.72c.096 1.024.496 1.888 1.2 2.592.704.704 1.664 1.056 2.88 1.056 1.12 0 1.984-.256 2.592-.768.608-.512.912-1.16.912-1.944 0-.64-.216-1.192-.648-1.656-.432-.48-1.064-.808-1.896-.984l-2.424-.528c-1.264-.272-2.272-.808-3.024-1.608-.752-.8-1.128-1.816-1.128-3.048 0-1.344.544-2.52 1.632-3.528 1.104-1.024 2.432-1.536 3.984-1.536 1.744 0 3.08.424 4.008 1.272.928.848 1.512 1.832 1.752 2.952Zm6.382-.288c-1.2 1.168-1.8 2.808-1.8 4.92s.6 3.76 1.8 4.944c1.2 1.184 2.648 1.776 4.344 1.776 1.696 0 3.144-.592 4.344-1.776 1.2-1.184 1.8-2.832 1.8-4.944s-.6-3.752-1.8-4.92c-1.2-1.184-2.648-1.776-4.344-1.776-1.696 0-3.144.592-4.344 1.776Zm-4.2 4.92c0-1.376.24-2.632.72-3.768.496-1.136 1.144-2.064 1.944-2.784a9.028 9.028 0 0 1 2.736-1.704c1.008-.4 2.056-.6 3.144-.6s2.136.2 3.144.6c1.008.4 1.912.968 2.712 1.704.816.72 1.464 1.648 1.944 2.784.496 1.136.744 2.392.744 3.768 0 1.824-.424 3.424-1.272 4.8-.832 1.376-1.888 2.4-3.168 3.072a8.7 8.7 0 0 1-4.104 1.008 8.7 8.7 0 0 1-4.104-1.008c-1.28-.672-2.344-1.696-3.192-3.072-.832-1.376-1.248-2.976-1.248-4.8Zm22.674 8.52h-2.352v-17.016h10.344v2.184h-7.992v5.472h7.248v2.208h-7.248V207Zm23.401-14.832h-5.688V207h-2.352v-14.832h-5.688v-2.184h13.728v2.184Zm18.348 11.28 3.67-13.464h2.42L1008.72 207h-2.42l-4.44-13.8-4.392 13.8h-2.352l-4.92-17.016h2.424l3.744 13.32 4.276-13.32h2.47l4.37 13.464ZM1026.8 207l-1.85-4.752h-7.54l-1.8 4.752h-2.52l6.77-17.016h2.71l6.77 17.016h-2.54Zm-5.64-14.568-2.91 7.632h5.86l-2.95-7.632ZM1040.55 207l-3.88-6.96h-2.55V207h-2.37v-17.016h6.4c1.57 0 2.83.488 3.77 1.464.96.96 1.44 2.16 1.44 3.6 0 1.232-.37 2.288-1.1 3.168-.74.864-1.75 1.416-3.03 1.656l4.06 7.128h-2.74Zm-6.43-9.072h3.6c.96 0 1.74-.256 2.33-.768.59-.528.89-1.232.89-2.112 0-.896-.3-1.608-.89-2.136-.59-.544-1.37-.816-2.33-.816h-3.6v5.832Zm22.83 9.072h-10.34v-17.016h10.34v2.184h-7.99v5.232h7.25v2.208h-7.25v5.208h7.99V207Zm11.95-2.088h3.48c1.67 0 3.04-.552 4.13-1.656 1.1-1.104 1.66-2.68 1.66-4.728 0-2.064-.55-3.656-1.64-4.776-1.07-1.12-2.44-1.68-4.1-1.68h-3.53v12.84Zm3.55 2.088h-5.9v-17.016h5.95c2.29 0 4.21.76 5.76 2.28 1.55 1.504 2.33 3.592 2.33 6.264 0 2.656-.78 4.736-2.35 6.24-1.57 1.488-3.5 2.232-5.79 2.232Zm21.72 0h-10.35v-17.016h10.35v2.184h-7.99v5.232h7.24v2.208h-7.24v5.208h7.99V207Zm9.31-3.024 5.19-13.992h2.47L1104.59 207h-2.33l-6.41-17.016h2.5l5.13 13.992Zm20.41 3.024h-10.35v-17.016h10.35v2.184h-8v5.232h7.25v2.208h-7.25v5.208h8V207Zm13.99 0h-10.39v-17.016h2.35v14.808h8.04V207Zm5.03-13.44c-1.2 1.168-1.8 2.808-1.8 4.92s.6 3.76 1.8 4.944c1.2 1.184 2.65 1.776 4.35 1.776 1.69 0 3.14-.592 4.34-1.776 1.2-1.184 1.8-2.832 1.8-4.944s-.6-3.752-1.8-4.92c-1.2-1.184-2.65-1.776-4.34-1.776-1.7 0-3.15.592-4.35 1.776Zm-4.2 4.92c0-1.376.24-2.632.72-3.768.5-1.136 1.15-2.064 1.95-2.784a8.904 8.904 0 0 1 2.73-1.704c1.01-.4 2.06-.6 3.15-.6 1.08 0 2.13.2 3.14.6 1.01.4 1.91.968 2.71 1.704.82.72 1.47 1.648 1.95 2.784.49 1.136.74 2.392.74 3.768 0 1.824-.42 3.424-1.27 4.8-.83 1.376-1.89 2.4-3.17 3.072a8.702 8.702 0 0 1-4.1 1.008c-1.46 0-2.83-.336-4.11-1.008-1.28-.672-2.34-1.696-3.19-3.072-.83-1.376-1.25-2.976-1.25-4.8Zm22.68-.552h3.41c1 0 1.8-.256 2.4-.768.59-.528.88-1.232.88-2.112 0-.896-.29-1.608-.88-2.136-.6-.544-1.4-.816-2.4-.816h-3.41v5.832Zm3.84 2.112h-3.84V207h-2.35v-17.016h6.19c1.55 0 2.81.48 3.79 1.44s1.46 2.16 1.46 3.6c0 1.456-.48 2.656-1.46 3.6s-2.24 1.416-3.79 1.416Zm18.47 6.96h-10.34v-17.016h10.34v2.184h-7.99v5.232h7.25v2.208h-7.25v5.208h7.99V207Zm12.41 0-3.89-6.96h-2.54V207h-2.38v-17.016h6.41c1.57 0 2.82.488 3.77 1.464.96.96 1.44 2.16 1.44 3.6 0 1.232-.37 2.288-1.11 3.168-.73.864-1.74 1.416-3.02 1.656l4.05 7.128h-2.73Zm-6.43-9.072h3.6c.96 0 1.73-.256 2.32-.768.6-.528.89-1.232.89-2.112 0-.896-.29-1.608-.89-2.136-.59-.544-1.36-.816-2.32-.816h-3.6v5.832Zm-163.22 45.784c-.6 0-1.11-.128-1.54-.384-.43-.256-.71-.64-.84-1.152-.74 1.056-1.69 1.584-2.86 1.584-1.08 0-1.97-.376-2.66-1.128-.67-.752-1.01-1.744-1.01-2.976 0-1.584.47-2.912 1.42-3.984.94-1.072 2.07-1.608 3.38-1.608.56 0 1.08.136 1.56.408.5.272.83.664 1.01 1.176l.22-1.272h1.89l-1.29 6.024c-.05.24-.08.464-.08.672 0 .656.31.984.92.984.67 0 1.27-.456 1.8-1.368.52-.928.79-1.992.79-3.192 0-1.776-.63-3.24-1.87-4.392-1.24-1.152-2.85-1.728-4.85-1.728-2.13 0-3.89.712-5.28 2.136-1.39 1.408-2.09 3.248-2.09 5.52 0 2.144.68 3.904 2.04 5.28 1.38 1.376 3.24 2.064 5.59 2.064 1.87 0 3.51-.56 4.92-1.68l.99 1.296c-.69.64-1.59 1.152-2.69 1.536-1.09.4-2.16.6-3.22.6-2.81 0-5.12-.84-6.91-2.52-1.79-1.696-2.69-3.896-2.69-6.6 0-2.736.91-4.984 2.71-6.744 1.81-1.76 4.01-2.64 6.6-2.64 2.45 0 4.49.752 6.12 2.256 1.65 1.488 2.48 3.352 2.48 5.592 0 1.776-.45 3.264-1.35 4.464-.88 1.184-1.95 1.776-3.21 1.776Zm-2.07-5.592c0-.72-.17-1.272-.53-1.656-.35-.4-.84-.6-1.48-.6-.84 0-1.52.36-2.07 1.08-.53.704-.79 1.52-.79 2.448 0 1.744.68 2.616 2.04 2.616.82 0 1.48-.36 1.99-1.08.53-.736.81-1.672.84-2.808Zm26.02 8.88h-10.39v-17.016h2.35v14.808h8.04V247Zm15.01 0-1.85-4.752h-7.53l-1.8 4.752h-2.52l6.76-17.016h2.72l6.76 17.016h-2.54Zm-5.64-14.568-2.9 7.632h5.85l-2.95-7.632Zm16.59-2.448h5.54c1.59 0 2.84.424 3.75 1.272.93.848 1.39 1.96 1.39 3.336 0 .88-.23 1.64-.7 2.28a3.93 3.93 0 0 1-1.84 1.392c.94.24 1.68.744 2.23 1.512.56.752.84 1.616.84 2.592 0 1.344-.49 2.456-1.47 3.336-.97.864-2.24 1.296-3.79 1.296h-5.95v-17.016Zm2.35 7.44h2.93c.93 0 1.66-.248 2.21-.744.54-.512.81-1.168.81-1.968 0-.816-.28-1.464-.84-1.944-.56-.48-1.32-.72-2.28-.72h-2.83v5.376Zm0 7.512h3.27c.96 0 1.72-.248 2.3-.744.59-.496.89-1.152.89-1.968 0-.848-.27-1.52-.79-2.016-.53-.512-1.3-.768-2.31-.768h-3.36v5.496ZM1101.2 247h-10.39v-17.016h2.35v14.808h8.04V247Zm12.79-1.272c-1.13 1.088-2.6 1.632-4.39 1.632-1.79 0-3.26-.544-4.41-1.632-1.14-1.088-1.71-2.6-1.71-4.536v-11.208h2.33v11.136c0 1.296.33 2.296.98 3 .68.704 1.61 1.056 2.81 1.056s2.13-.352 2.79-1.056c.65-.704.98-1.704.98-3v-11.136h2.35v11.208c0 1.936-.57 3.448-1.73 4.536Zm16.15 1.272h-10.34v-17.016h10.34v2.184h-7.99v5.232h7.25v2.208h-7.25v5.208h7.99V247Zm5.96-9.072h3.41c1 0 1.8-.256 2.4-.768.59-.528.88-1.232.88-2.112 0-.896-.29-1.608-.88-2.136-.6-.544-1.4-.816-2.4-.816h-3.41v5.832Zm3.84 2.112h-3.84V247h-2.35v-17.016h6.19c1.55 0 2.81.48 3.79 1.44s1.46 2.16 1.46 3.6c0 1.456-.48 2.656-1.46 3.6s-2.24 1.416-3.79 1.416Zm16.93 6.96-3.88-6.96h-2.55V247h-2.37v-17.016h6.4c1.57 0 2.83.488 3.77 1.464.96.96 1.44 2.16 1.44 3.6 0 1.232-.37 2.288-1.1 3.168-.74.864-1.75 1.416-3.03 1.656l4.06 7.128h-2.74Zm-6.43-9.072h3.6c.96 0 1.74-.256 2.33-.768.59-.528.89-1.232.89-2.112 0-.896-.3-1.608-.89-2.136-.59-.544-1.37-.816-2.33-.816h-3.6v5.832Zm14.89 9.072h-2.4v-17.016h2.4V247Zm18.31 0h-2.44l-9.2-13.872V247h-2.35v-17.016h3.15l8.49 13.056v-13.056h2.35V247Zm16.12-14.832h-5.68V247h-2.36v-14.832h-5.68v-2.184h13.72v2.184ZM1055.99 287l-2.16-2.256c-1.52 1.696-3.11 2.544-4.78 2.544-1.52 0-2.72-.432-3.6-1.296-.88-.864-1.32-1.88-1.32-3.048 0-1.024.24-1.88.72-2.568.5-.688 1.26-1.416 2.28-2.184l.24-.192-.31-.336c-.4-.416-.71-.752-.93-1.008-.21-.272-.45-.672-.72-1.2-.26-.544-.39-1.072-.39-1.584 0-1.296.44-2.328 1.32-3.096.9-.768 1.92-1.152 3.07-1.152 1.32 0 2.4.384 3.24 1.152.85.752 1.28 1.752 1.28 3 0 1.328-.8 2.584-2.4 3.768l-.87.648 3.17 3.288 3.79-4.224v3.096l-2.3 2.664 3.86 3.984h-3.19Zm-6.91-1.872c.59 0 1.13-.16 1.61-.48.49-.32 1.01-.784 1.56-1.392l.07-.096-3.46-3.624-.86.648c-.96.736-1.44 1.592-1.44 2.568 0 .608.23 1.16.69 1.656.48.48 1.09.72 1.83.72Zm-1.73-11.4c0 .688.43 1.48 1.3 2.376l.52.576 1.16-.864c.84-.624 1.27-1.328 1.27-2.112 0-.576-.21-1.064-.63-1.464-.4-.4-.91-.6-1.53-.6-.55 0-1.03.192-1.47.576-.41.368-.62.872-.62 1.512Zm29.31 12c-1.14 1.088-2.6 1.632-4.39 1.632-1.8 0-3.27-.544-4.42-1.632-1.14-1.088-1.7-2.6-1.7-4.536v-11.208h2.32v11.136c0 1.296.33 2.296.99 3 .67.704 1.61 1.056 2.81 1.056s2.12-.352 2.78-1.056c.66-.704.98-1.704.98-3v-11.136h2.36v11.208c0 1.936-.58 3.448-1.73 4.536Zm13.17 1.632c-2.32 0-4.31-.8-5.97-2.4-1.65-1.6-2.48-3.76-2.48-6.48 0-1.824.42-3.424 1.25-4.8.83-1.376 1.88-2.392 3.15-3.048a8.478 8.478 0 0 1 4.05-1.008c1.92 0 3.54.488 4.85 1.464 1.33.96 2.21 2.272 2.64 3.936l-2.18.768c-.32-1.28-.94-2.264-1.85-2.952-.91-.704-2.07-1.056-3.46-1.056-1.66 0-3.09.592-4.27 1.776-1.18 1.168-1.78 2.808-1.78 4.92s.6 3.76 1.78 4.944c1.18 1.184 2.61 1.776 4.27 1.776 1.39 0 2.55-.368 3.48-1.104.93-.752 1.58-1.744 1.95-2.976l2.08.768c-.46 1.648-1.36 2.976-2.68 3.984-1.32.992-2.92 1.488-4.83 1.488Zm21.03-.36h-10.4v-17.016h2.36v14.808h8.04V287Zm15.01 0-1.85-4.752h-7.54l-1.8 4.752h-2.52l6.77-17.016h2.71l6.77 17.016h-2.54Zm-5.64-14.568-2.91 7.632h5.86l-2.95-7.632ZM1148.6 287l-1.85-4.752h-7.53l-1.8 4.752h-2.52l6.76-17.016h2.72l6.76 17.016h-2.54Zm-5.64-14.568-2.9 7.632h5.85l-2.95-7.632ZM1165.33 287l-1.84-4.752h-7.54l-1.8 4.752h-2.52l6.77-17.016h2.71l6.77 17.016h-2.55Zm-5.64-14.568-2.9 7.632h5.86l-2.96-7.632Zm21.21 1.416-2.11.744c-.12-.736-.48-1.4-1.08-1.992-.61-.608-1.45-.912-2.52-.912-.95 0-1.73.272-2.36.816-.62.544-.93 1.216-.93 2.016 0 .624.18 1.152.55 1.584.38.432.93.728 1.63.888l2.55.552c1.4.304 2.49.88 3.26 1.728.77.832 1.15 1.848 1.15 3.048 0 1.376-.54 2.56-1.63 3.552-1.09.992-2.5 1.488-4.25 1.488-1.9 0-3.4-.496-4.49-1.488-1.07-1.008-1.69-2.2-1.87-3.576l2.26-.72c.09 1.024.49 1.888 1.2 2.592.7.704 1.66 1.056 2.88 1.056 1.12 0 1.98-.256 2.59-.768.61-.512.91-1.16.91-1.944 0-.64-.21-1.192-.65-1.656-.43-.48-1.06-.808-1.89-.984l-2.43-.528c-1.26-.272-2.27-.808-3.02-1.608s-1.13-1.816-1.13-3.048c0-1.344.55-2.52 1.63-3.528 1.11-1.024 2.44-1.536 3.99-1.536 1.74 0 3.08.424 4.01 1.272.92.848 1.51 1.832 1.75 2.952Zm10.63 13.512c-2.32 0-4.31-.8-5.98-2.4-1.65-1.6-2.47-3.76-2.47-6.48 0-1.824.42-3.424 1.25-4.8.83-1.376 1.88-2.392 3.14-3.048a8.545 8.545 0 0 1 4.06-1.008c1.92 0 3.53.488 4.85 1.464 1.32.96 2.2 2.272 2.64 3.936l-2.19.768c-.32-1.28-.93-2.264-1.85-2.952-.91-.704-2.06-1.056-3.45-1.056-1.67 0-3.09.592-4.27 1.776-1.19 1.168-1.78 2.808-1.78 4.92s.59 3.76 1.78 4.944c1.18 1.184 2.6 1.776 4.27 1.776 1.39 0 2.55-.368 3.48-1.104.93-.752 1.57-1.744 1.94-2.976l2.09.768c-.46 1.648-1.36 2.976-2.69 3.984-1.31.992-2.92 1.488-4.82 1.488ZM175.207 85.207a1 1 0 0 0 0-1.414l-6.364-6.364a1 1 0 1 0-1.414 1.414l5.657 5.657-5.657 5.657a1 1 0 1 0 1.414 1.414l6.364-6.364Zm-38.792.293H174.5v-2h-38.085v2Z"/><path stroke="#000" stroke-dasharray="15 15" stroke-linecap="round" stroke-width="2" d="M562.753 23.155C621.512-5.723 687.344-3.258 740.118 12.829c85.962 26.204 122.959 68.986 128.943 96.794 6.193 28.776-20.13 38.504-34.82 38.504-16.075 0-30.679-22.526-20.13-50.803C826.08 65.238 934.893-14.978 1141.64 57.216"/><path fill="#FFCE43" d="M1196.44 79.405c.52 1.362 2.22 7.201-4.84 9.38-7-4.477-5.61-13.547-5.58-13.72.58-.126 1.17-.218 1.77-.273 5.62-.466 8.07 3.086 8.65 4.613Zm-3.59.575a1.318 1.318 0 0 0-.26-.634 1.256 1.256 0 0 0-.57-.39c-.23-.074-.47-.081-.7-.022a1.202 1.202 0 0 0-.89.972c-.04.23-.01.466.09.68.09.213.25.394.44.522.2.128.43.197.67.198.17-.007.33-.047.48-.118.16-.07.29-.17.41-.294.11-.123.2-.268.26-.425.05-.156.08-.323.07-.49Z"/><path fill="#000" d="M1191.64 78.654c.28-.026.55.03.79.16s.43.329.55.57c.12.24.17.512.13.78a1.24 1.24 0 0 1-.34.715c-.18.2-.42.34-.69.401-.26.062-.54.043-.79-.054a1.31 1.31 0 0 1-.63-.491 1.36 1.36 0 0 1-.24-.755c-.01-.167.02-.333.08-.49.05-.157.14-.301.25-.425.12-.123.25-.223.41-.293.15-.071.32-.111.48-.118Z"/><path fill="#1E1517" d="M1191.6 88.785c-1.78.268-3.5.836-5.09 1.68-8.65-2.155-10.18-10.525-10.18-10.525.6-.498 1.23-.963 1.88-1.395 1.01.222 2.04.387 3.07.494.1-.864.17-1.647.22-2.37 1.29-.625 2.64-1.12 4.03-1.48l.49-.116c-.03.165-1.42 9.235 5.58 13.712Z"/><path fill="#FFFBEE" d="M1185.52 65.52c4.11 2.34.96 8.58 0 9.67-1.39.358-2.74.853-4.03 1.478.38-5.513-.45-7.077-1.9-8.977-.27-.36-.61-.666-1-.9 0 0 2.82-3.61 6.93-1.27Z"/><path fill="#FFCE43" d="M1186.51 90.464a6.553 6.553 0 0 0-2.65 2.596c-10.38-.803-11.54-7.257-11.54-7.257.28-.985.69-1.93 1.22-2.813a12.11 12.11 0 0 1 2.77-3.063s1.55 8.4 10.2 10.537Z"/><path fill="#FFFBEE" d="M1179.59 67.69c1.45 1.902 2.28 3.465 1.9 8.978-.05.724-.12 1.507-.21 2.371a28.12 28.12 0 0 1-3.08-.494c-3.77-.804-9.58-2.813-8.73-7.418.89-4.843 6.32-6.048 9.12-4.336.39.234.73.54 1 .9Z"/><path fill="#1E1517" d="M1183.86 93.06c-.66 1.246-3.08 2.54-5.55 2.492a5.597 5.597 0 0 1-3.43-1.182 5.804 5.804 0 0 1-1.33-1.547c-1.72-2.87-1.73-5.224-1.22-7.02-.01 0 1.15 6.433 11.53 7.257Z"/><path fill="#1E1517" d="M1178.31 95.56c-3.66 4.34-3.43-1.182-3.43-1.182.98.764 2.19 1.18 3.43 1.182Z"/><path stroke="#000" stroke-miterlimit="10" stroke-width="2" d="M1186.02 75.065c.58-.127 1.17-.218 1.77-.273 5.62-.475 8.07 3.094 8.65 4.605.52 1.362 2.22 7.201-4.84 9.38-1.78.268-3.5.836-5.09 1.68a6.553 6.553 0 0 0-2.65 2.595c-.66 1.246-3.08 2.54-5.55 2.492a5.596 5.596 0 0 1-3.43-1.182 5.803 5.803 0 0 1-1.33-1.547c-1.72-2.87-1.73-5.224-1.22-7.02.28-.986.69-1.93 1.22-2.814a11.965 11.965 0 0 1 2.78-3.062c.6-.497 1.22-.962 1.87-1.394"/><path stroke="#000" stroke-miterlimit="10" stroke-width="3" d="M1181.49 76.672c1.29-.624 2.64-1.12 4.03-1.478l.5-.117"/><path stroke="#000" stroke-miterlimit="10" stroke-width="2" d="M1181.49 76.672c-.05.724-.12 1.507-.21 2.371a28.073 28.073 0 0 1-3.08-.494c-3.77-.804-9.58-2.813-8.73-7.418.89-4.843 6.32-6.048 9.12-4.336.39.234.73.54 1 .9 1.45 1.897 2.28 3.46 1.9 8.977ZM1186.02 75.065c-.03.165-1.44 9.243 5.58 13.711M1176.33 79.94s1.53 8.37 10.17 10.524M1172.32 85.803s1.16 6.43 11.54 7.257"/><path stroke="#000" stroke-miterlimit="10" stroke-width="2" d="M1178.59 66.79s2.82-3.616 6.92-1.27c4.1 2.348.95 8.58 0 9.67"/><path stroke="#000" stroke-miterlimit="10" stroke-width="3" d="M1174.88 94.354s-.23 5.522 3.43 1.182"/><path stroke="#000" stroke-linecap="round" stroke-miterlimit="10" stroke-width="2" d="M1194.7 73.393c.11-1.949 1.97-4.706 4.2-5.04M1197.6 74.76a4.274 4.274 0 0 1 2.13-1.648 4.346 4.346 0 0 1 2.71-.056"/></svg>