<svg xmlns="http://www.w3.org/2000/svg" width="1204" height="315" fill="none"><path fill="#FFCE43" stroke="#000" d="M392 86.527 414.048 36l25.332 51.944L392 86.526Z"/><path fill="#000" d="M226.8 117h-10.44l34.56-84h10.2l34.68 84h-10.44l-9.84-24h-38.88l-9.84 24Zm29.28-71.16-15.6 38.04h31.2l-15.6-38.04ZM364.413 117h-55.08V33h10.08v74.76h45V117Zm18.598 0h-10.44l34.56-84h10.2l34.68 84h-10.44l-9.84-24h-38.88l-9.84 24Zm29.28-71.16-15.6 38.04h31.2l-15.6-38.04ZM475.624 117h-10.08V33h11.52l47.52 69.6V33h10.08v84h-11.52l-47.52-69.6V117ZM354.28 254H344.2v-84h11.52l47.52 69.6V170h10.08v84H401.8l-47.52-69.6V254Zm115.331 1.32c-23.16 0-39.72-17.04-39.72-43.56 0-24.96 15.24-43.08 40.8-43.08 21.36 0 36.12 12.96 39.6 33.6h-10.44c-3.12-15.36-13.8-24.36-29.16-24.36-18.6 0-30.24 12.84-30.24 33.84 0 21.24 11.88 34.32 29.16 34.32 15.72 0 25.68-10.68 25.68-25.92h-28.32v-8.64h29.52c8.76 0 13.44 4.44 13.44 12.6V254h-9v-28.68h-.24c-1.56 18.48-12.48 30-31.08 30Zm91.216 0c-21.72 0-33.48-13.56-33.48-29.52V170h10.08v55.56c0 13.32 10.56 20.4 23.4 20.4 12.84 0 23.4-7.08 23.4-20.4V170h10.08v55.8c0 15.96-11.88 29.64-33.48 29.52Zm86.979-1.32h-10.08v-37.08L605.806 170h11.88l25.2 37.32 25.08-37.32h11.88l-32.04 46.92V254Zm102.764 0h-58.44v-84h57.36v9.24h-47.4v26.52h42.6v9h-42.6v30h48.48V254Zm26.171 0h-10.08v-84h11.52l47.52 69.6V170h10.08v84h-11.52l-47.52-69.6V254Z"/><path stroke="#000" stroke-dasharray="15 15" stroke-width="2" d="M8.2 198.073c114.254 31.591 258.431 3.159 342.761-56.467"/><path fill="#000" d="M9.936 51H2.04V34.2h7.704c2.928 0 4.968 1.728 4.968 4.224 0 1.8-1.272 3.288-3.24 3.912 2.184.432 3.624 2.016 3.624 4.08 0 2.712-2.112 4.584-5.16 4.584ZM4.032 36.048v5.496h5.592c1.8 0 3.048-1.2 3.048-2.904 0-1.536-1.128-2.592-2.736-2.592H4.032Zm0 7.296v5.808h6.12c1.68 0 2.856-1.2 2.856-2.952 0-1.872-1.464-2.856-3.264-2.856H4.032ZM19.096 51h-2.088l6.912-16.8h2.04L32.896 51h-2.088l-1.968-4.8h-7.776L19.096 51Zm5.856-14.232-3.12 7.608h6.24l-3.12-7.608Zm16.826 14.496c-4.224 0-7.128-2.184-7.344-5.352h2.112c.24 2.16 2.28 3.528 5.232 3.528 2.568 0 3.912-1.056 3.912-2.808 0-1.704-1.488-2.352-3.096-2.856l-2.904-.912c-1.344-.432-4.728-1.152-4.728-4.44 0-2.712 2.232-4.488 5.712-4.488 3.84 0 6.216 1.944 6.48 5.52h-2.088c-.168-2.376-1.824-3.696-4.488-3.696-2.112 0-3.6.96-3.6 2.568 0 1.848 1.92 2.232 3.36 2.688l2.712.84c2.136.672 4.704 1.512 4.704 4.68 0 2.952-2.256 4.728-5.976 4.728ZM62.501 51H50.813V34.2h11.472v1.848h-9.48v5.304h8.52v1.8h-8.52v6h9.696V51Zm9.147 0H65.72V34.2h5.928c4.824 0 8.184 3.408 8.184 8.304 0 5.016-3.36 8.496-8.184 8.496Zm-3.912-14.952v13.104h4.032c3.48 0 5.928-2.736 5.928-6.648 0-3.624-2.448-6.456-5.928-6.456h-4.032ZM90.54 51h-2.016V34.2h2.016V51Zm6.094 0h-2.016V34.2h2.304l9.504 13.92V34.2h2.016V51h-2.304l-9.504-13.92V51Zm32.297 0h-11.016V34.2h2.016v14.952h9V51Zm3.72 0h-2.088l6.912-16.8h2.04l6.936 16.8h-2.088l-1.968-4.8h-7.776l-1.968 4.8Zm5.856-14.232-3.12 7.608h6.24l-3.12-7.608Zm21.441 14.496c-3.672 0-6.24-2.04-6.24-4.968 0-2.712 1.992-4.056 4.032-5.088-1.128-1.272-1.8-2.304-1.8-3.624 0-2.088 1.752-3.648 4.08-3.648 2.328 0 4.08 1.536 4.08 3.624 0 2.016-1.608 3.072-3.408 3.984l4.344 4.464c.504-1.2.768-2.664.768-4.368h2.04c0 2.328-.48 4.296-1.344 5.856l2.376 2.448-1.512 1.32-2.064-2.16c-1.344 1.392-3.168 2.16-5.352 2.16Zm-.432-10.896c1.416-.72 2.52-1.512 2.52-2.76 0-1.104-.864-1.92-1.992-1.92-1.152 0-2.04.84-2.04 1.968 0 .912.6 1.752 1.512 2.712Zm.432 9.048c1.704 0 3.048-.6 4.032-1.68l-5.088-5.304c-1.68.888-3.12 1.896-3.12 3.744 0 1.92 1.56 3.24 4.176 3.24ZM9.936 86H2.04V69.2h7.704c2.928 0 4.968 1.728 4.968 4.224 0 1.8-1.272 3.288-3.24 3.912 2.184.432 3.624 2.016 3.624 4.08 0 2.712-2.112 4.584-5.16 4.584ZM4.032 71.048v5.496h5.592c1.8 0 3.048-1.2 3.048-2.904 0-1.536-1.128-2.592-2.736-2.592H4.032Zm0 7.296v5.808h6.12c1.68 0 2.856-1.2 2.856-2.952 0-1.872-1.464-2.856-3.264-2.856H4.032ZM19.096 86h-2.088l6.912-16.8h2.04L32.896 86h-2.088l-1.968-4.8h-7.776L19.096 86Zm5.856-14.232-3.12 7.608h6.24l-3.12-7.608ZM39.324 86h-2.016v-7.416L30.924 69.2H33.3l5.04 7.464 5.016-7.464h2.376l-6.408 9.384V86Zm14.975 0h-2.088l6.912-16.8h2.04L68.1 86h-2.088l-1.968-4.8h-7.776L54.3 86Zm5.856-14.232-3.12 7.608h6.24l-3.12-7.608ZM72.822 86h-2.016V69.2h7.656c3.168 0 5.352 1.896 5.352 4.632 0 1.992-1.344 3.672-3.384 4.32.888.24 1.512.816 1.824 1.656L84.582 86h-2.16l-2.16-5.832c-.264-.72-.84-1.104-1.632-1.104h-5.808V86Zm0-14.952v6.216h5.736c2.088 0 3.216-1.44 3.216-3.24 0-1.968-1.392-2.976-3.216-2.976h-5.736ZM99.11 86H87.423V69.2h11.472v1.848h-9.48v5.304h8.52v1.8h-8.52v6h9.696V86Zm3.938 0h-2.088l6.912-16.8h2.04l6.936 16.8h-2.088l-1.968-4.8h-7.776l-1.968 4.8Zm5.856-14.232-3.12 7.608h6.24l-3.12-7.608ZM926.685 185.264c-4.224 0-7.128-2.184-7.344-5.352h2.112c.24 2.16 2.28 3.528 5.232 3.528 2.568 0 3.912-1.056 3.912-2.808 0-1.704-1.488-2.352-3.096-2.856l-2.904-.912c-1.344-.432-4.728-1.152-4.728-4.44 0-2.712 2.232-4.488 5.712-4.488 3.84 0 6.216 1.944 6.48 5.52h-2.088c-.168-2.376-1.824-3.696-4.488-3.696-2.112 0-3.6.96-3.6 2.568 0 1.848 1.92 2.232 3.36 2.688l2.712.84c2.136.672 4.704 1.512 4.704 4.68 0 2.952-2.256 4.728-5.976 4.728Zm16.355 0c-4.8 0-8.088-3.408-8.088-8.712 0-4.992 3.048-8.616 8.088-8.616 4.848 0 8.136 3.408 8.136 8.616 0 5.04-3.048 8.712-8.136 8.712Zm0-1.848c3.744 0 6.072-2.664 6.072-6.864 0-4.152-2.352-6.768-6.072-6.768-3.696 0-6.024 2.616-6.024 6.768 0 4.2 2.328 6.864 6.024 6.864ZM956.509 185h-2.016v-16.8h11.448v1.848h-9.432v5.448h8.712v1.848h-8.712V185Zm19.093 0h-2.016v-14.952h-5.808V168.2h13.632v1.848h-5.808V185Zm14.128 0h-2.256l-4.752-16.8h2.088l3.888 13.776 3.888-13.776h1.968l3.936 13.824 3.89-13.824h2.09l-4.756 16.8h-2.256l-3.888-13.68-3.84 13.68Zm16.25 0h-2.09l6.91-16.8h2.04l6.94 16.8h-2.09l-1.97-4.8h-7.77l-1.97 4.8Zm5.85-14.232-3.12 7.608h6.24l-3.12-7.608ZM1024.5 185h-2.01v-16.8h7.65c3.17 0 5.35 1.896 5.35 4.632 0 1.992-1.34 3.672-3.38 4.32.89.24 1.51.816 1.82 1.656l2.33 6.192h-2.16l-2.16-5.832c-.26-.72-.84-1.104-1.63-1.104h-5.81V185Zm0-14.952v6.216h5.74c2.09 0 3.21-1.44 3.21-3.24 0-1.968-1.39-2.976-3.21-2.976h-5.74ZM1050.79 185h-11.69v-16.8h11.47v1.848h-9.48v5.304h8.52v1.8h-8.52v6h9.7V185Zm14.54 0h-5.93v-16.8h5.93c4.82 0 8.18 3.408 8.18 8.304 0 5.016-3.36 8.496-8.18 8.496Zm-3.91-14.952v13.104h4.03c3.48 0 5.93-2.736 5.93-6.648 0-3.624-2.45-6.456-5.93-6.456h-4.03ZM1088.5 185h-11.69v-16.8h11.48v1.848h-9.48v5.304h8.52v1.8h-8.52v6h9.69V185Zm10.35 0h-2.16l-6.53-16.8h2.16l5.45 14.016 5.28-14.016h2.13l-6.33 16.8Zm20.54 0h-11.69v-16.8h11.48v1.848h-9.48v5.304h8.52v1.8h-8.52v6h9.69V185Zm14.24 0h-11.02v-16.8h2.02v14.952h9V185Zm9.12.264c-4.8 0-8.09-3.408-8.09-8.712 0-4.992 3.05-8.616 8.09-8.616 4.85 0 8.14 3.408 8.14 8.616 0 5.04-3.05 8.712-8.14 8.712Zm0-1.848c3.74 0 6.07-2.664 6.07-6.864 0-4.152-2.35-6.768-6.07-6.768-3.7 0-6.02 2.616-6.02 6.768 0 4.2 2.32 6.864 6.02 6.864Zm13.47 1.584h-2.02v-16.8h7.95c3.5 0 5.37 2.232 5.37 4.92 0 3.408-2.4 5.232-5.37 5.232h-5.93V185Zm0-14.952v6.456h6.02c2.09 0 3.22-1.512 3.22-3.384 0-1.992-1.44-3.072-3.22-3.072h-6.02ZM1182.2 185h-11.68v-16.8h11.47v1.848h-9.48v5.304h8.52v1.8h-8.52v6h9.69V185Zm5.24 0h-2.02v-16.8h7.66c3.17 0 5.35 1.896 5.35 4.632 0 1.992-1.34 3.672-3.38 4.32.88.24 1.51.816 1.82 1.656l2.33 6.192h-2.16l-2.16-5.832c-.27-.72-.84-1.104-1.63-1.104h-5.81V185Zm0-14.952v6.216h5.73c2.09 0 3.22-1.44 3.22-3.24 0-1.968-1.39-2.976-3.22-2.976h-5.73Zm-173.57 52.4c-6 0-9.91-3.408-9.91-8.976 0-5.712 4.03-9.816 9.79-9.816 5.25 0 8.9 3.504 8.9 8.52 0 3.408-1.65 5.76-4.08 5.76-1.46 0-2.4-.864-2.4-2.136-.77 1.32-2.06 2.136-3.69 2.136-2.4 0-3.99-1.8-3.99-4.392 0-3.192 2.14-5.616 4.8-5.616 1.56 0 2.81.84 3.41 2.088l.41-1.752h.96l-.72 6.84c-.1.984.36 1.632 1.27 1.632 1.56 0 2.64-1.872 2.64-4.464 0-4.32-3.07-7.224-7.49-7.224-4.89 0-8.3 3.552-8.3 8.4 0 4.752 3.31 7.632 8.49 7.632 1.9 0 3.56-.384 5.04-1.128v1.512c-1.46.624-3.16.984-5.13.984Zm-1.11-5.832c1.8 0 3.15-1.56 3.36-3.696.24-2.16-.91-3.672-2.71-3.672-1.94 0-3.43 1.8-3.43 4.176 0 1.872 1.1 3.192 2.78 3.192Zm29.6 3.384h-11.02v-16.8h2.02v14.952h9V220Zm3.72 0h-2.09l6.91-16.8h2.04l6.94 16.8h-2.09l-1.97-4.8h-7.77l-1.97 4.8Zm5.86-14.232-3.12 7.608h6.24l-3.12-7.608ZM1075.87 220h-7.89v-16.8h7.7c2.93 0 4.97 1.728 4.97 4.224 0 1.8-1.27 3.288-3.24 3.912 2.18.432 3.62 2.016 3.62 4.08 0 2.712-2.11 4.584-5.16 4.584Zm-5.9-14.952v5.496h5.59c1.8 0 3.05-1.2 3.05-2.904 0-1.536-1.13-2.592-2.74-2.592h-5.9Zm0 7.296v5.808h6.12c1.68 0 2.86-1.2 2.86-2.952 0-1.872-1.47-2.856-3.27-2.856h-5.71Zm25.36 7.656h-11.02v-16.8h2.02v14.952h9V220Zm8.94.264c-4.34 0-6.69-2.712-6.69-5.904V203.2h2.01v11.112c0 2.664 2.11 4.08 4.68 4.08s4.68-1.416 4.68-4.08V203.2h2.02v11.16c0 3.192-2.38 5.928-6.7 5.904Zm22.32-.264h-11.69v-16.8h11.47v1.848h-9.48v5.304h8.52v1.8h-8.52v6h9.7V220Zm5.23 0h-2.01v-16.8h7.94c3.5 0 5.38 2.232 5.38 4.92 0 3.408-2.4 5.232-5.38 5.232h-5.93V220Zm0-14.952v6.456h6.03c2.08 0 3.21-1.512 3.21-3.384 0-1.992-1.44-3.072-3.21-3.072h-6.03ZM1148.13 220h-2.01v-16.8h7.65c3.17 0 5.36 1.896 5.36 4.632 0 1.992-1.35 3.672-3.39 4.32.89.24 1.51.816 1.83 1.656l2.32 6.192h-2.16l-2.16-5.832c-.26-.72-.84-1.104-1.63-1.104h-5.81V220Zm0-14.952v6.216h5.74c2.09 0 3.22-1.44 3.22-3.24 0-1.968-1.4-2.976-3.22-2.976h-5.74ZM1164.75 220h-2.01v-16.8h2.01V220Zm6.1 0h-2.02v-16.8h2.3l9.51 13.92V203.2h2.01V220h-2.3l-9.5-13.92V220Zm22.51 0h-2.02v-14.952h-5.8V203.2h13.63v1.848h-5.81V220Zm-149.16 35.264c-3.67 0-6.24-2.04-6.24-4.968 0-2.712 1.99-4.056 4.03-5.088-1.13-1.272-1.8-2.304-1.8-3.624 0-2.088 1.75-3.648 4.08-3.648s4.08 1.536 4.08 3.624c0 2.016-1.61 3.072-3.41 3.984l4.35 4.464c.5-1.2.76-2.664.76-4.368h2.04c0 2.328-.48 4.296-1.34 5.856l2.38 2.448-1.52 1.32-2.06-2.16c-1.34 1.392-3.17 2.16-5.35 2.16Zm-.43-10.896c1.41-.72 2.52-1.512 2.52-2.76 0-1.104-.87-1.92-2-1.92-1.15 0-2.04.84-2.04 1.968 0 .912.6 1.752 1.52 2.712Zm.43 9.048c1.7 0 3.05-.6 4.03-1.68l-5.09-5.304c-1.68.888-3.12 1.896-3.12 3.744 0 1.92 1.56 3.24 4.18 3.24Zm23.56 1.848c-4.35 0-6.7-2.712-6.7-5.904V238.2h2.02v11.112c0 2.664 2.11 4.08 4.68 4.08 2.56 0 4.68-1.416 4.68-4.08V238.2h2.01v11.16c0 3.192-2.37 5.928-6.69 5.904Zm18.06 0c-5.16 0-8.2-3.624-8.2-8.712 0-4.992 3.04-8.616 8.2-8.616 4.28 0 7.2 2.496 7.92 6.72h-2.08c-.63-3.072-2.79-4.872-5.84-4.872-3.76 0-6.09 2.616-6.09 6.768 0 4.296 2.33 6.864 6.09 6.864 3.15 0 5.19-1.704 5.84-4.872h2.08c-.74 4.368-3.52 6.72-7.92 6.72Zm22.26-.264h-11.02v-16.8h2.02v14.952h9V255Zm3.72 0h-2.09l6.91-16.8h2.04l6.94 16.8h-2.09l-1.97-4.8h-7.77l-1.97 4.8Zm5.86-14.232-3.12 7.608h6.24l-3.12-7.608ZM1134.42 255h-2.09l6.91-16.8h2.04l6.94 16.8h-2.09l-1.97-4.8h-7.78l-1.96 4.8Zm5.85-14.232-3.12 7.608h6.24l-3.12-7.608ZM1151.64 255h-2.09l6.92-16.8h2.04l6.93 16.8h-2.09l-1.96-4.8h-7.78l-1.97 4.8Zm5.86-14.232-3.12 7.608h6.24l-3.12-7.608Zm16.83 14.496c-4.23 0-7.13-2.184-7.35-5.352h2.11c.24 2.16 2.28 3.528 5.24 3.528 2.56 0 3.91-1.056 3.91-2.808 0-1.704-1.49-2.352-3.1-2.856l-2.9-.912c-1.35-.432-4.73-1.152-4.73-4.44 0-2.712 2.23-4.488 5.71-4.488 3.84 0 6.22 1.944 6.48 5.52h-2.09c-.16-2.376-1.82-3.696-4.48-3.696-2.12 0-3.6.96-3.6 2.568 0 1.848 1.92 2.232 3.36 2.688l2.71.84c2.13.672 4.7 1.512 4.7 4.68 0 2.952-2.25 4.728-5.97 4.728Zm16.47 0c-5.16 0-8.21-3.624-8.21-8.712 0-4.992 3.05-8.616 8.21-8.616 4.27 0 7.2 2.496 7.92 6.72h-2.09c-.62-3.072-2.78-4.872-5.83-4.872-3.77 0-6.1 2.616-6.1 6.768 0 4.296 2.33 6.864 6.1 6.864 3.14 0 5.18-1.704 5.83-4.872h2.09c-.74 4.368-3.53 6.72-7.92 6.72ZM175.207 79.207a1 1 0 0 0 0-1.414l-6.364-6.364a1 1 0 1 0-1.414 1.414l5.657 5.657-5.657 5.657a1 1 0 1 0 1.414 1.414l6.364-6.364Zm-38.792.293H174.5v-2h-38.085v2Z"/><path stroke="#000" stroke-dasharray="15 15" stroke-linecap="round" stroke-width="2" d="M562.753 23.155C621.512-5.723 687.344-3.258 740.119 12.829c85.962 26.204 122.958 68.986 128.943 96.794 6.193 28.776-20.13 38.504-34.82 38.504-16.075 0-30.679-22.526-20.131-50.803 11.97-32.086 120.783-112.302 327.529-40.108"/><path fill="#FFCE43" d="M1196.44 64.405c.52 1.362 2.22 7.201-4.84 9.38-7-4.477-5.61-13.547-5.58-13.72.58-.127 1.17-.218 1.77-.273 5.62-.467 8.07 3.086 8.65 4.613Zm-3.59.575a1.227 1.227 0 0 0-.26-.634 1.256 1.256 0 0 0-.57-.39c-.23-.074-.47-.081-.7-.022a1.202 1.202 0 0 0-.89.972c-.04.23-.01.466.09.68.09.213.25.394.44.522.2.128.43.197.67.198.17-.007.33-.047.49-.118.15-.07.28-.17.4-.294.11-.123.2-.268.26-.425.05-.156.08-.323.07-.49Z"/><path fill="#000" d="M1191.64 63.654c.28-.026.55.03.79.16s.43.329.55.57c.12.24.17.512.13.78a1.24 1.24 0 0 1-.34.715c-.18.2-.42.34-.69.401-.26.062-.54.043-.79-.054a1.31 1.31 0 0 1-.63-.491 1.36 1.36 0 0 1-.24-.755c-.01-.167.02-.333.08-.49.05-.157.14-.301.25-.425.12-.123.25-.223.41-.293.15-.071.32-.111.48-.118Z"/><path fill="#1E1517" d="M1191.6 73.785c-1.78.268-3.5.836-5.09 1.68-8.65-2.155-10.18-10.525-10.18-10.525.6-.498 1.23-.963 1.88-1.395 1.01.222 2.04.387 3.07.494.1-.864.17-1.647.22-2.37 1.29-.625 2.64-1.12 4.03-1.48l.49-.116c-.03.165-1.42 9.235 5.58 13.712Z"/><path fill="#FFFBEE" d="M1185.52 50.52c4.11 2.34.96 8.58 0 9.67-1.39.358-2.74.854-4.03 1.478.38-5.513-.45-7.077-1.9-8.977-.27-.36-.61-.666-1-.9 0 0 2.82-3.61 6.93-1.27Z"/><path fill="#FFCE43" d="M1186.51 75.464a6.553 6.553 0 0 0-2.65 2.596c-10.38-.803-11.54-7.257-11.54-7.257.28-.985.69-1.93 1.22-2.813a12.11 12.11 0 0 1 2.77-3.063s1.55 8.4 10.2 10.537Z"/><path fill="#FFFBEE" d="M1179.59 52.69c1.45 1.902 2.28 3.465 1.9 8.978-.05.724-.12 1.507-.21 2.371a28.12 28.12 0 0 1-3.08-.494c-3.77-.804-9.58-2.813-8.73-7.418.89-4.843 6.32-6.048 9.12-4.336.39.234.73.54 1 .9Z"/><path fill="#1E1517" d="M1183.86 78.06c-.66 1.246-3.08 2.54-5.55 2.492a5.597 5.597 0 0 1-3.43-1.182 5.804 5.804 0 0 1-1.33-1.547c-1.72-2.87-1.73-5.224-1.22-7.02-.01 0 1.15 6.433 11.53 7.257Z"/><path fill="#1E1517" d="M1178.31 80.56c-3.66 4.34-3.43-1.182-3.43-1.182.98.764 2.19 1.18 3.43 1.182Z"/><path stroke="#000" stroke-miterlimit="10" stroke-width="2" d="M1186.02 60.065c.58-.127 1.17-.218 1.77-.273 5.62-.475 8.07 3.094 8.65 4.605.52 1.362 2.22 7.201-4.84 9.38-1.78.268-3.5.836-5.09 1.68a6.553 6.553 0 0 0-2.65 2.595c-.66 1.246-3.08 2.54-5.55 2.492a5.596 5.596 0 0 1-3.43-1.182 5.803 5.803 0 0 1-1.33-1.547c-1.72-2.87-1.73-5.224-1.22-7.02.28-.986.69-1.93 1.22-2.814a11.965 11.965 0 0 1 2.78-3.062c.6-.497 1.22-.962 1.87-1.394"/><path stroke="#000" stroke-miterlimit="10" stroke-width="3" d="M1181.49 61.672c1.29-.624 2.64-1.12 4.03-1.478l.5-.117"/><path stroke="#000" stroke-miterlimit="10" stroke-width="2" d="M1181.49 61.672c-.05.724-.12 1.507-.21 2.371a28.073 28.073 0 0 1-3.08-.494c-3.77-.804-9.58-2.813-8.73-7.418.89-4.843 6.32-6.048 9.12-4.336.39.234.73.54 1 .9 1.45 1.897 2.28 3.46 1.9 8.977ZM1186.02 60.065c-.03.165-1.44 9.243 5.58 13.711M1176.33 64.94s1.53 8.37 10.17 10.524M1172.32 70.803s1.16 6.43 11.54 7.257"/><path stroke="#000" stroke-miterlimit="10" stroke-width="2" d="M1178.59 51.79s2.82-3.616 6.92-1.27c4.1 2.347.95 8.58 0 9.67"/><path stroke="#000" stroke-miterlimit="10" stroke-width="3" d="M1174.88 79.354s-.23 5.522 3.43 1.182"/><path stroke="#000" stroke-linecap="round" stroke-miterlimit="10" stroke-width="2" d="M1194.7 58.393c.11-1.949 1.97-4.706 4.2-5.04M1197.6 59.76a4.274 4.274 0 0 1 2.13-1.648 4.346 4.346 0 0 1 2.71-.056"/></svg>