<svg xmlns="http://www.w3.org/2000/svg" width="67" height="38" fill="none"><g clip-path="url(#a)"><path fill="#000" d="M11.52 30.57c1.92-.36 2.44-2.92 1.44-4.38-1.31-1.92-4.1-1.9-6.13-1.47a9.29 9.29 0 0 0-5.64 3.51c-1.33 1.85-1.83 4.75.14 6.36a6.08 6.08 0 0 0 3 1.19c1.344.203 2.7.317 4.06.34a16.71 16.71 0 0 0 7.42-1.61c4.75-2.2 8.3-6.25 11.17-10.52.85-1.27 1.66-2.57 2.45-3.88.4-.66.8-1.34 1.21-2 .21-.36.24-.4.62-.21.276.132.54.285.79.46a8.86 8.86 0 0 1 3.88 6.31c.07.66 1 1.12 1.39.37 3-6.07 7.08-11.83 13-15.34a22.1 22.1 0 0 1 9.48-3.14c1.48-.11 3.62-.33 4.87.65a1.53 1.53 0 0 1 .61 1.69c-.3.74-1.21 1.32-1.81 1.79-2.83 2.21-6.89 3.93-10.21 1.67-.8-.55-1.55.75-.75 1.29 3.24 2.22 7.42 1.23 10.49-.78a22.749 22.749 0 0 0 2.35-1.79 3.93 3.93 0 0 0 1.47-2.13c.34-1.87-1.29-3.31-3-3.71a15.6 15.6 0 0 0-5.7 0 23.491 23.491 0 0 0-5.51 1.59 28 28 0 0 0-9.34 6.62A43.117 43.117 0 0 0 36 24.28l1.4.38a10.46 10.46 0 0 0-2.43-5.67 10.27 10.27 0 0 0-2.27-2c-.84-.53-2-1.22-2.9-.36-.349.42-.648.88-.89 1.37l-1 1.62c-.66 1.09-1.33 2.16-2 3.22a38.12 38.12 0 0 1-4.68 5.91c-3.15 3.18-7.3 5.69-11.87 5.85-1.356.02-2.713-.05-4.06-.21a6.28 6.28 0 0 1-2.69-.76c-2-1.27-.83-4 .49-5.33a8.428 8.428 0 0 1 6.32-2.32c.93.06 2.17.4 2.5 1.39a1.268 1.268 0 0 1-.76 1.73c-1 .18-.55 1.62.39 1.45l-.03.02Z"/><path stroke="#FFBD00" stroke-linecap="round" stroke-miterlimit="10" stroke-width="1.5" d="m40.77 11.71-3.25-5.69a8.492 8.492 0 1 0-14.71 8.49l2.44 4.23M29.2 26.01l3.69 6.39a8.5 8.5 0 0 0 14.72-8.5l-3-5.16"/><path fill="#000" d="M17.43 1.46c.304.054.602.138.89.25h.1l.21.1c.13.08.27.15.39.24l.18.12c-.1-.08.12.09 0 0l.09.07c.12.1.23.21.34.32l.16.17c0 .05.18.24 0 .06.09.13.18.25.26.38a.76.76 0 0 0 1 .27.75.75 0 0 0 .27-1 5.14 5.14 0 0 0-3.49-2.4.75.75 0 0 0-.93.52.76.76 0 0 0 .53.92v-.02ZM15.21 6.08c.194-.06.39-.11.59-.15h.14c.09 0 .1 0 0 0h.3c.173-.01.347-.01.52 0h.15l.25.06.23.07c.08 0 .08 0 0 0l.11.05c.13.06.25.14.37.21.07.05.12.07 0 0l.09.08c.061.052.118.108.17.17 0 0 .18.23.08.08l.13.2a.75.75 0 0 0 1 .27.76.76 0 0 0 .27-1 3.44 3.44 0 0 0-2-1.53 5.06 5.06 0 0 0-2.86.09.76.76 0 0 0-.52.92.77.77 0 0 0 .92.53l.06-.05Z"/></g><defs><clipPath id="a"><path fill="#fff" d="M0 0h66.78v37.4H0z"/></clipPath></defs></svg>