<svg xmlns="http://www.w3.org/2000/svg" width="229" height="234" fill="none"><path fill="#FFCE43" stroke="#A7773A" stroke-width="3" d="M29.729 30.788H82.84a1.5 1.5 0 0 1 1.3.75l26.555 45.997a1.5 1.5 0 0 1 0 1.5L84.14 125.032a1.5 1.5 0 0 1-1.299.75H29.73a1.5 1.5 0 0 1-1.3-.75L1.874 79.035a1.5 1.5 0 0 1 0-1.5L28.43 31.538a1.5 1.5 0 0 1 1.299-.75ZM122.445 84.07h53.112a1.5 1.5 0 0 1 1.299.75l26.556 45.998a1.5 1.5 0 0 1 0 1.5l-26.556 45.996a1.5 1.5 0 0 1-1.299.75h-53.112a1.502 1.502 0 0 1-1.3-.75l-26.556-45.996a1.5 1.5 0 0 1 0-1.5l26.556-45.997c.268-.464.764-.75 1.3-.75ZM29.863 137.218h53.112a1.5 1.5 0 0 1 1.299.75l26.556 45.997a1.5 1.5 0 0 1 0 1.5l-26.556 45.997a1.5 1.5 0 0 1-1.3.75H29.863a1.5 1.5 0 0 1-1.298-.75L2.007 185.465a1.5 1.5 0 0 1 0-1.5l26.556-45.997a1.5 1.5 0 0 1 1.3-.75Z"/><path fill="#FFCE43" d="M164.846 35.773c-1.223 3.228-5.175 17.063 11.259 22.224C192.416 47.39 189.174 25.9 189.118 25.49a34.336 34.336 0 0 0-4.133-.647c-13.079-1.105-18.784 7.312-20.139 10.93Zm8.359 1.362c.055-.55.267-1.07.611-1.502a2.844 2.844 0 0 1 2.941-.975 2.845 2.845 0 0 1 2.083 2.302 2.866 2.866 0 0 1-1.246 2.849 2.831 2.831 0 0 1-1.546.468 2.968 2.968 0 0 1-2.073-.976 2.98 2.98 0 0 1-.77-2.166Z"/><path fill="#000" d="M176.011 33.993a3.136 3.136 0 0 0-1.825.38 3.168 3.168 0 0 0 .799 5.844 3.132 3.132 0 0 0 1.859-.13 3.15 3.15 0 0 0 1.461-1.163c.359-.527.55-1.15.549-1.789a2.994 2.994 0 0 0-1.709-2.862 2.965 2.965 0 0 0-1.134-.28Z"/><path fill="#1E1517" d="M176.106 57.997a36.668 36.668 0 0 1 11.866 3.98c20.149-5.103 23.694-24.937 23.694-24.937a51.432 51.432 0 0 0-4.369-3.304c-2.362.525-4.75.916-7.156 1.171a162.894 162.894 0 0 1-.502-5.617 49.958 49.958 0 0 0-9.392-3.505l-1.147-.276c.076.39 3.317 21.881-12.994 32.488Z"/><path fill="#FFFBEE" d="M190.267 2.876c-9.572 5.542-2.217 20.329 0 22.91 3.24.849 6.386 2.023 9.393 3.503-.891-13.064 1.052-16.768 4.416-21.271a8.397 8.397 0 0 1 2.341-2.133s-6.568-8.55-16.15-3.009Z"/><path fill="#FFCE43" d="M187.973 61.977a15.477 15.477 0 0 1 6.17 6.15c24.177-1.903 26.878-17.195 26.878-17.195a28.622 28.622 0 0 0-2.843-6.665 28.147 28.147 0 0 0-6.463-7.256s-3.592 19.9-23.742 24.966Z"/><path fill="#FFFBEE" d="M204.074 8.018c-3.364 4.504-5.307 8.208-4.416 21.271.123 1.714.284 3.571.502 5.618a64.195 64.195 0 0 0 7.155-1.17c8.796-1.905 22.32-6.666 20.339-17.578-2.085-11.473-14.718-14.33-21.239-10.274a8.397 8.397 0 0 0-2.341 2.133Z"/><path fill="#1E1517" d="M194.142 68.128c1.526 2.951 7.165 6.017 12.918 5.903a12.854 12.854 0 0 0 7.99-2.8 13.24 13.24 0 0 0 3.099-3.665c4.018-6.799 4.037-12.378 2.843-16.634.029 0-2.673 15.244-26.85 17.196Z"/><path fill="#1E1517" d="M207.059 74.05c8.53 10.284 7.99-2.8 7.99-2.8a12.854 12.854 0 0 1-7.99 2.8Z"/><path stroke="#000" stroke-miterlimit="10" stroke-width="2" d="M189.119 25.49a34.351 34.351 0 0 0-4.132-.647c-13.079-1.124-18.784 7.331-20.14 10.911-1.222 3.228-5.174 17.063 11.26 22.224a36.67 36.67 0 0 1 11.865 3.98 15.477 15.477 0 0 1 6.17 6.15c1.526 2.952 7.165 6.018 12.918 5.904a12.854 12.854 0 0 0 7.99-2.8 13.24 13.24 0 0 0 3.099-3.665c4.018-6.798 4.037-12.378 2.843-16.634a28.622 28.622 0 0 0-2.843-6.665 28.169 28.169 0 0 0-6.464-7.256 51.432 51.432 0 0 0-4.369-3.304"/><path stroke="#000" stroke-miterlimit="10" stroke-width="3" d="M199.657 29.299a49.958 49.958 0 0 0-9.392-3.504l-1.147-.276"/><path stroke="#000" stroke-miterlimit="10" stroke-width="2" d="M199.658 29.299c.123 1.714.284 3.57.502 5.618a64.195 64.195 0 0 0 7.155-1.172c8.796-1.904 22.32-6.665 20.339-17.576-2.085-11.474-14.718-14.33-21.239-10.274a8.397 8.397 0 0 0-2.341 2.133c-3.364 4.494-5.307 8.198-4.416 21.27ZM189.12 25.49c.057.39 3.345 21.9-13.013 32.488M211.684 37.04s-3.564 19.833-23.694 24.937M221.021 50.932s-2.701 15.234-26.878 17.196"/><path stroke="#000" stroke-miterlimit="10" stroke-width="2" d="M206.417 5.885s-6.568-8.57-16.112-3.009c-9.544 5.561-2.217 20.329 0 22.91"/><path stroke="#000" stroke-miterlimit="10" stroke-width="3" d="M215.047 71.194s.531 13.083-7.989 2.8"/><path stroke="#000" stroke-linecap="round" stroke-miterlimit="10" stroke-width="2" d="M168.905 21.53c-.256-4.619-4.596-11.15-9.79-11.94M162.146 24.767a9.984 9.984 0 0 0-4.965-3.904 9.935 9.935 0 0 0-6.303-.134"/></svg>