<svg xmlns="http://www.w3.org/2000/svg" width="705" height="167" fill="none"><path stroke="#000" stroke-dasharray="15 15" stroke-linecap="round" stroke-width="2" d="M1.633 25.738c64.49-32.245 136.741-29.492 194.662-11.53 94.346 29.26 134.95 77.03 141.518 108.081 6.797 32.13-22.093 42.992-38.216 42.992-17.643 0-33.671-25.152-22.093-56.726C290.641 72.727 410.065-16.841 636.972 63.77"/><path fill="#FFCE43" d="M697.116 71.798c.576 1.521 2.438 8.04-5.306 10.473-7.687-4.999-6.16-15.126-6.133-15.32a16.213 16.213 0 0 1 1.948-.304c6.163-.52 8.852 3.446 9.491 5.15Zm-3.94.642a1.35 1.35 0 0 0-.913-1.144 1.334 1.334 0 0 0-1.411.373 1.351 1.351 0 0 0 .256 2.03c.216.143.469.22.728.221a1.402 1.402 0 0 0 1.34-1.48Z"/><path fill="#000" d="M691.855 70.959a1.478 1.478 0 0 1 1.468.815 1.495 1.495 0 0 1-.985 2.117 1.475 1.475 0 0 1-1.564-.608 1.483 1.483 0 0 1-.259-.843 1.413 1.413 0 0 1 .805-1.35c.168-.078.349-.123.535-.131Z"/><path fill="#1E1517" d="M691.809 82.271c-1.957.3-3.848.934-5.592 1.876-9.495-2.405-11.166-11.752-11.166-11.752a24.438 24.438 0 0 1 2.059-1.557c1.113.247 2.239.431 3.372.552.103-.965.179-1.84.237-2.648 1.417-.697 2.9-1.25 4.426-1.651l.541-.13c-.036.184-1.563 10.311 6.123 15.31Z"/><path fill="#FFFBEE" d="M685.137 56.294c4.511 2.612 1.045 9.58 0 10.797-1.527.4-3.01.953-4.427 1.651.42-6.156-.495-7.902-2.081-10.024a3.953 3.953 0 0 0-1.103-1.006s3.095-4.029 7.611-1.418Z"/><path fill="#FFCE43" d="M686.217 84.147a7.3 7.3 0 0 0-2.908 2.898c-11.394-.897-12.666-8.104-12.666-8.104a13.48 13.48 0 0 1 1.34-3.14 13.263 13.263 0 0 1 3.046-3.42s1.692 9.378 11.188 11.766Z"/><path fill="#FFFBEE" d="M678.629 58.718c1.586 2.122 2.501 3.868 2.082 10.024a76.255 76.255 0 0 1-.237 2.648 30.257 30.257 0 0 1-3.372-.552c-4.145-.898-10.519-3.141-9.585-8.284.983-5.407 6.936-6.753 10.009-4.841.428.261.802.602 1.103 1.005Z"/><path fill="#1E1517" d="M683.31 87.045c-.719 1.391-3.377 2.836-6.088 2.782a6.057 6.057 0 0 1-3.765-1.319 6.235 6.235 0 0 1-1.461-1.727c-1.893-3.204-1.902-5.834-1.339-7.84-.014 0 1.259 7.184 12.653 8.104Z"/><path fill="#1E1517" d="M677.222 89.836c-4.02 4.846-3.765-1.319-3.765-1.319a6.055 6.055 0 0 0 3.765 1.32Z"/><path stroke="#000" stroke-miterlimit="10" stroke-width="2" d="M685.677 66.952a16.177 16.177 0 0 1 1.947-.305c6.164-.53 8.853 3.455 9.492 5.142.576 1.521 2.438 8.04-5.307 10.473-1.956.3-3.848.934-5.592 1.876a7.298 7.298 0 0 0-2.907 2.898c-.719 1.391-3.377 2.836-6.088 2.782a6.057 6.057 0 0 1-3.765-1.319 6.236 6.236 0 0 1-1.461-1.727c-1.893-3.204-1.902-5.834-1.339-7.84a13.52 13.52 0 0 1 1.339-3.14 13.285 13.285 0 0 1 3.047-3.42 24.119 24.119 0 0 1 2.059-1.557"/><path stroke="#000" stroke-miterlimit="10" stroke-width="3" d="M680.71 68.747c1.417-.698 2.9-1.251 4.427-1.652l.54-.13"/><path stroke="#000" stroke-miterlimit="10" stroke-width="2" d="M680.711 68.747a76.277 76.277 0 0 1-.237 2.647 30.257 30.257 0 0 1-3.372-.552c-4.145-.897-10.519-3.141-9.585-8.283.983-5.407 6.936-6.753 10.009-4.842.428.262.802.603 1.103 1.005 1.586 2.118 2.501 3.864 2.082 10.025ZM685.677 66.952c-.026.184-1.576 10.32 6.133 15.31M675.042 72.395s1.68 9.347 11.166 11.752M670.643 78.941s1.272 7.18 12.666 8.104"/><path stroke="#000" stroke-miterlimit="10" stroke-width="2" d="M677.526 57.713s3.095-4.039 7.593-1.418c4.497 2.62 1.045 9.58 0 10.796"/><path stroke="#000" stroke-miterlimit="10" stroke-width="3" d="M673.458 88.49s-.25 6.166 3.765 1.32"/><path stroke="#000" stroke-linecap="round" stroke-miterlimit="10" stroke-width="2" d="M695.204 65.085c.12-2.176 2.166-5.254 4.613-5.627M698.389 66.61a4.7 4.7 0 0 1 2.34-1.839 4.68 4.68 0 0 1 2.97-.063"/></svg>